<svg width="343" height="189" viewBox="0 0 343 189" fill="none" xmlns="http://www.w3.org/2000/svg">
<path d="M52.224 26.976H37.504C37.3333 34.5707 37.2053 42.2933 37.12 50.144C37.0347 57.9093 36.992 66.3147 36.992 75.36C36.992 81.1627 36.992 85.856 36.992 89.44C36.992 92.9387 36.992 95.84 36.992 98.144C36.992 100.363 36.992 102.197 36.992 103.648C37.0773 105.013 37.12 106.464 37.12 108H15.616C15.7013 104.245 15.7867 100.363 15.872 96.352C15.9573 92.256 16 87.8613 16 83.168C16.0853 78.3893 16.128 73.2693 16.128 67.808C16.2133 62.2613 16.256 56.16 16.256 49.504C16.256 44.64 16.256 40.416 16.256 36.832C16.256 33.248 16.2133 29.9627 16.128 26.976H1.408V3.296H52.224V26.976ZM76.793 0.351997C76.537 5.13066 76.3237 9.312 76.153 12.896C75.9823 16.3947 75.8543 19.6373 75.769 22.624C75.6837 25.5253 75.5983 28.256 75.513 30.816C75.513 33.2907 75.513 35.808 75.513 38.368C77.561 35.808 80.0357 33.8027 82.937 32.352C85.8383 30.816 88.7823 30.048 91.769 30.048C93.6463 30.048 95.4383 30.3467 97.145 30.944C98.937 31.456 100.558 32.1813 102.009 33.12C103.46 34.0587 104.697 35.2107 105.721 36.576C106.83 37.856 107.641 39.264 108.153 40.8C108.494 41.9947 108.75 43.744 108.921 46.048C109.177 48.2667 109.305 50.6987 109.305 53.344V108H90.489V69.6C90.489 67.04 89.849 65.0347 88.569 63.584C87.3743 62.048 85.753 61.28 83.705 61.28C81.5717 61.28 79.6517 61.9627 77.945 63.328C76.3237 64.6933 75.513 66.3573 75.513 68.32V108H56.697C56.8677 96.6507 56.953 84.5333 56.953 71.648C56.953 58.6773 56.953 44.768 56.953 29.92C56.953 25.312 56.953 21.472 56.953 18.4C56.953 15.2427 56.953 12.5973 56.953 10.464C56.953 8.33066 56.9103 6.49599 56.825 4.95999C56.825 3.424 56.825 1.888 56.825 0.351997H76.793ZM141.815 67.68C142.924 71.3493 144.759 74.336 147.319 76.64C149.879 78.944 153.42 80.096 157.943 80.096C159.308 80.096 160.759 80.0107 162.295 79.84C163.916 79.584 165.495 79.2853 167.031 78.944C168.567 78.5173 170.018 78.0907 171.383 77.664C172.748 77.152 173.943 76.6827 174.967 76.256C175.138 78.7307 175.223 81.376 175.223 84.192C175.308 86.9227 175.351 89.6533 175.351 92.384C175.351 96.9067 175.223 100.96 174.967 104.544C168.311 107.787 160.844 109.408 152.567 109.408C148.727 109.408 144.844 108.981 140.919 108.128C136.994 107.275 133.196 105.653 129.527 103.264C126.284 101.131 123.596 98.656 121.463 95.84C119.415 92.9387 117.794 89.9947 116.599 87.008C115.404 83.936 114.594 80.9493 114.167 78.048C113.74 75.1467 113.527 72.544 113.527 70.24C113.527 66.8267 113.911 63.2853 114.679 59.616C115.532 55.8613 116.812 52.32 118.519 48.992C120.226 45.5787 122.402 42.464 125.047 39.648C127.692 36.832 130.807 34.6133 134.391 32.992C138.743 31.0293 143.351 30.048 148.215 30.048C153.335 30.048 157.943 31.072 162.039 33.12C166.135 35.168 169.463 37.984 172.023 41.568C174.498 44.9813 176.034 48.7787 176.631 52.96C177.314 57.1413 177.655 62.048 177.655 67.68H141.815ZM149.111 43.872C147.319 43.872 145.612 44.64 143.991 46.176C142.37 47.6267 141.303 50.2293 140.791 53.984H157.559C157.218 50.5707 156.194 48.0533 154.487 46.432C152.866 44.7253 151.074 43.872 149.111 43.872Z" fill="black"/>
<path d="M219.77 187.345C217.623 187.268 214.787 187.192 211.26 187.115C207.733 187.115 203.938 187.077 199.875 187C195.888 187 191.863 187 187.8 187C183.813 187 180.287 187 177.22 187C177.297 185.39 177.335 183.243 177.335 180.56C177.412 177.877 177.45 174.81 177.45 171.36C177.45 167.91 177.45 164.192 177.45 160.205C177.45 156.142 177.45 151.963 177.45 147.67C177.45 141.843 177.412 136.017 177.335 130.19C177.335 124.363 177.335 118.958 177.335 113.975C177.335 108.915 177.297 104.545 177.22 100.865C177.22 97.185 177.22 94.5783 177.22 93.045C180.21 93.045 183.507 93.045 187.11 93.045C190.713 93.045 194.393 93.045 198.15 93.045C201.907 92.9683 205.587 92.8917 209.19 92.815C212.793 92.7383 216.167 92.6617 219.31 92.585C219.31 93.5817 219.31 94.4633 219.31 95.23C219.387 95.92 219.425 96.9167 219.425 98.22C219.425 99.14 219.387 100.252 219.31 101.555C219.31 102.782 219.272 104.085 219.195 105.465C219.195 106.768 219.157 108.11 219.08 109.49C219.08 110.793 219.042 112.02 218.965 113.17H195.85V126.51H215.975V143.645H195.85V156.525H219.31C219.387 158.288 219.463 160.09 219.54 161.93C219.617 163.77 219.655 165.84 219.655 168.14C219.732 170.44 219.77 173.162 219.77 176.305C219.77 179.372 219.77 183.052 219.77 187.345ZM280.264 187H264.509V181.365C261.749 183.588 258.836 185.313 255.769 186.54C252.703 187.69 249.713 188.265 246.799 188.265C243.349 188.265 240.168 187.422 237.254 185.735C234.341 184.048 231.811 181.71 229.664 178.72C227.594 175.653 225.946 172.012 224.719 167.795C223.493 163.578 222.879 158.978 222.879 153.995C222.879 148.782 223.531 143.913 224.834 139.39C226.138 134.867 227.901 130.957 230.124 127.66C232.424 124.287 235.108 121.68 238.174 119.84C241.318 117.923 244.691 116.965 248.294 116.965C251.438 116.965 254.428 117.655 257.264 119.035C260.101 120.338 262.516 121.987 264.509 123.98V90.285H280.839L280.264 187ZM244.844 145.485C244.844 148.628 245.688 151.158 247.374 153.075C249.138 154.992 251.361 155.95 254.044 155.95C256.958 155.95 259.411 154.915 261.404 152.845C263.474 150.775 264.509 148.13 264.509 144.91C264.509 143.453 264.241 142.073 263.704 140.77C263.244 139.467 262.554 138.355 261.634 137.435C260.714 136.438 259.641 135.672 258.414 135.135C257.188 134.598 255.884 134.33 254.504 134.33C251.744 134.33 249.444 135.365 247.604 137.435C245.764 139.505 244.844 142.188 244.844 145.485ZM286.487 120.07H303.392V187H286.487V120.07ZM295.342 91.55C297.182 91.55 298.83 91.9333 300.287 92.7C301.82 93.39 303.085 94.31 304.082 95.46C305.079 96.61 305.845 97.9133 306.382 99.37C306.919 100.75 307.187 102.092 307.187 103.395C307.187 105.158 306.842 106.807 306.152 108.34C305.539 109.797 304.657 111.1 303.507 112.25C302.434 113.323 301.169 114.205 299.712 114.895C298.332 115.508 296.837 115.815 295.227 115.815C293.234 115.815 291.47 115.508 289.937 114.895C288.404 114.205 287.1 113.362 286.027 112.365C285.03 111.292 284.264 110.065 283.727 108.685C283.267 107.305 283.037 105.887 283.037 104.43C283.037 102.973 283.305 101.478 283.842 99.945C284.455 98.4117 285.26 97.0317 286.257 95.805C287.33 94.5017 288.634 93.4667 290.167 92.7C291.7 91.9333 293.425 91.55 295.342 91.55ZM315.032 104.89H330.787V118.23H339.642V148.82H330.557V164.92C330.557 168.063 330.826 170.172 331.362 171.245C331.899 172.242 333.126 172.74 335.042 172.74C335.579 172.74 336.307 172.702 337.227 172.625C338.147 172.548 338.837 172.433 339.297 172.28C339.451 172.817 339.527 173.928 339.527 175.615C339.527 177.225 339.527 178.873 339.527 180.56C339.527 182.017 339.527 183.358 339.527 184.585C339.527 185.735 339.489 186.54 339.412 187C338.492 187.153 337.457 187.268 336.307 187.345C335.234 187.498 334.161 187.613 333.087 187.69C332.091 187.767 331.132 187.805 330.212 187.805C329.369 187.882 328.679 187.92 328.142 187.92C325.382 187.92 323.121 187.383 321.357 186.31C319.594 185.237 318.214 183.818 317.217 182.055C316.221 180.215 315.531 178.183 315.147 175.96C314.764 173.66 314.572 171.322 314.572 168.945C314.572 168.025 314.572 166.683 314.572 164.92C314.649 163.08 314.687 161.163 314.687 159.17C314.764 157.177 314.841 155.26 314.917 153.42C314.994 151.503 315.032 149.97 315.032 148.82H308.132V118.23H315.032V104.89Z" fill="black"/>
<path d="M122.454 124.002C122.454 124.062 122.454 124.121 122.454 124.183C122.584 124.199 122.714 124.214 122.849 124.23C128.077 124.861 132.95 125.952 137.774 127.814C138.01 127.903 138.01 127.903 138.251 127.993C145.122 130.578 151.407 134.692 156.032 139.796C156.198 139.973 156.363 140.149 156.534 140.331C160.711 144.867 163.562 150.24 165.476 155.772C165.537 155.95 165.537 155.95 165.6 156.132C167.697 162.414 167.633 169.763 164.066 175.638C163.134 177.099 161.943 178.326 160.649 179.554C160.465 179.735 160.465 179.735 160.278 179.92C155.045 184.812 146.819 185.889 139.555 186.229C139.006 186.256 139.006 186.256 138.403 186.453C137.904 186.436 137.406 186.408 136.908 186.373C135.467 186.279 134.039 186.257 132.595 186.278C132.222 186.282 131.85 186.277 131.478 186.271C131.409 186.211 131.339 186.151 131.268 186.089C130.896 186.037 130.523 185.995 130.149 185.958C129.903 185.932 129.658 185.906 129.405 185.88C129.132 185.852 128.86 185.823 128.579 185.794C125.261 185.443 121.965 184.991 118.667 184.524C118.474 184.496 118.282 184.469 118.084 184.442C117.725 184.391 117.366 184.34 117.008 184.288C114.693 183.962 112.401 183.861 110.059 183.854C109.902 183.854 109.745 183.853 109.584 183.853C106.273 183.852 103.139 184.251 99.9033 184.847C93.8636 185.957 93.8636 185.957 91.394 184.819C90.2289 183.898 89.5301 182.849 89.0855 181.551C87.7687 181.665 86.5436 181.907 85.2686 182.209C83.8671 182.535 82.4649 182.849 81.0508 183.132C78.1123 183.719 75.2986 184.375 72.5063 185.363C72.0661 185.516 71.6256 185.669 71.1851 185.822C70.806 185.954 70.4281 186.089 70.0503 186.223C66.7411 187.319 63.0618 187.235 59.7752 186.101C58.5496 185.619 57.7489 185.028 56.9764 184.092C56.8059 183.571 56.8059 183.571 56.7666 183.185C56.2818 183.245 55.797 183.305 55.2975 183.366C55.2975 183.306 55.2975 183.247 55.2975 183.185C55.1321 183.187 54.9667 183.189 54.7962 183.191C48.3938 183.254 41.8994 183.11 35.8623 181.049C35.1831 180.835 34.6137 180.675 33.8915 180.643C33.439 180.85 33.439 180.85 33.0521 181.188C29.9413 183.453 26.3063 184.008 22.3491 183.729C20.3061 183.499 18.2042 183.02 16.8106 181.621C15.9903 180.614 15.9201 179.655 16.0532 178.465C16.5565 176.561 18.0845 175.187 19.9225 174.13C22.4323 172.837 22.4323 172.837 23.6082 172.837C23.5246 172.641 23.4411 172.445 23.3549 172.243C21.1403 166.889 21.139 161.056 23.8745 155.805C24.2518 155.121 24.6337 154.441 25.0429 153.77C25.5702 152.896 25.5702 152.896 25.6937 151.933C25.6288 151.762 25.5639 151.591 25.497 151.415C25.4194 151.198 25.3417 150.982 25.2617 150.759C25.1706 150.537 25.0794 150.315 24.9855 150.087C24.8948 149.863 24.8042 149.639 24.7108 149.408C24.5173 148.854 24.5173 148.854 24.028 148.692C24.2378 148.328 24.2378 148.328 24.4477 148.147C24.2399 148.147 24.0322 148.147 23.8181 148.147C23.879 147.967 23.879 147.967 23.9411 147.784C24.0528 147.084 23.9014 146.47 23.7394 145.787C22.8539 141.732 22.188 135.719 25.0109 132.103C25.5504 131.527 26.1084 131.322 26.9136 131.116C31.0942 130.907 35.1876 133.691 38.2986 135.802C38.5107 135.944 38.7228 136.087 38.9413 136.233C39.8315 136.838 40.6706 137.449 41.4466 138.162C41.5851 138.282 41.7236 138.402 41.8663 138.525C41.9356 138.645 42.0048 138.765 42.0762 138.888C43.334 138.751 44.54 138.511 45.7689 138.246C49.6067 137.438 54.5276 137.316 58.2971 138.418C59.2087 138.674 59.9996 138.862 60.9638 138.888C61.8334 138.438 62.3952 137.848 63.0078 137.168C63.7266 136.417 64.6932 135.849 65.5808 135.257C65.6999 135.178 65.819 135.098 65.9416 135.016C67.7676 133.804 69.6397 132.751 71.6669 131.808C71.6669 131.628 71.6669 131.449 71.6669 131.263C71.8054 131.263 71.9439 131.263 72.0866 131.263C72.0866 131.383 72.0866 131.503 72.0866 131.626C72.3046 131.537 72.5227 131.447 72.7473 131.355C75.5794 130.219 75.5794 130.219 77.1405 130.187C77.5899 130.189 77.5899 130.189 78.1726 129.993C78.4843 130.262 78.4843 130.262 78.8022 130.537C78.7329 130.597 78.6637 130.657 78.5923 130.719C78.7482 130.812 78.904 130.906 79.0645 131.002C80.1135 131.807 80.5909 132.885 81.1107 133.987C81.9553 133.721 82.6731 133.368 83.4323 132.954C83.6721 132.824 83.912 132.695 84.1521 132.566C84.2735 132.501 84.3949 132.435 84.5199 132.368C85.1066 132.054 85.6981 131.749 86.2917 131.445C86.4959 131.34 86.7002 131.235 86.9106 131.127C87.4066 130.9 87.4066 130.9 87.8263 130.9C87.8956 130.78 87.9648 130.661 88.0362 130.537C88.4198 130.358 88.4198 130.358 88.9281 130.168C89.2132 130.061 89.2132 130.061 89.5042 129.952C89.7123 129.875 89.9204 129.799 90.1348 129.72C90.3499 129.64 90.5651 129.561 90.7867 129.479C101.296 125.607 111.07 123.941 122.454 124.002Z" fill="black"/>
<path d="M114.647 127.027C114.951 127.024 114.951 127.024 115.261 127.021C123.622 126.965 123.622 126.965 127.62 127.772C127.947 127.834 127.947 127.834 128.28 127.897C136.91 129.567 144.657 133.142 151.037 138.259C151.294 138.464 151.557 138.664 151.821 138.863C153.851 140.448 155.756 142.564 157 144.648C156.931 144.764 156.861 144.88 156.79 145C155.902 144.176 155.013 143.353 154.141 142.517C154.023 142.404 153.905 142.292 153.784 142.176C153.545 141.945 153.309 141.713 153.074 141.479C152.216 140.633 151.3 139.91 150.285 139.199C150.104 139.067 149.923 138.935 149.736 138.799C139.415 131.381 126.218 128.166 112.773 128.958C102.088 129.673 91.8791 133.033 82.8624 137.803C82.5009 137.968 82.5009 137.968 82.0812 137.968C81.9729 137.416 81.9729 137.416 82.0812 136.737C82.5817 136.299 83.1862 136.025 83.8125 135.727C83.9933 135.636 84.1742 135.546 84.3606 135.453C84.9267 135.173 85.4972 134.9 86.0684 134.628C86.397 134.466 86.7254 134.304 87.0538 134.142C94.3873 130.592 102.441 128.207 110.832 127.244C111.087 127.213 111.342 127.183 111.604 127.151C112.618 127.046 113.627 127.034 114.647 127.027Z" fill="#7A7C7F"/>
<path d="M157.511 161C157.88 161.551 157.986 161.956 157.994 162.59C157.996 162.756 157.998 162.922 158 163.093C157.976 166.577 157.096 169.662 154.184 172.218C154.036 172.34 153.888 172.461 153.736 172.586C153.623 172.685 153.51 172.784 153.394 172.886C149.64 175.947 143.762 176.944 138.792 176.968C138.524 176.97 138.524 176.97 138.25 176.972C137.671 176.975 137.092 176.976 136.513 176.976C136.314 176.976 136.114 176.977 135.908 176.977C131.105 176.974 126.422 176.555 121.663 176.015C117.355 175.526 113.122 175.268 108.778 175.245C108.593 175.243 108.408 175.242 108.218 175.24C103.552 175.202 97.9567 175.441 94.3813 178.336C93.304 179.389 92.8186 180.644 92.4987 182C92.3603 181.94 92.2219 181.881 92.0793 181.819C91.9178 178.412 91.9178 178.412 92.9182 177.293C93.0071 177.185 93.096 177.077 93.1877 176.965C94.4317 175.577 96.0148 174.907 97.899 174.351C98.1235 174.284 98.1235 174.284 98.3526 174.216C101.274 173.405 104.261 173.412 107.297 173.412C107.523 173.412 107.75 173.412 107.983 173.411C113.137 173.414 118.218 173.837 123.334 174.336C124.318 174.431 125.302 174.522 126.286 174.612C127.442 174.717 128.597 174.825 129.751 174.936C137.151 175.645 145.98 175.883 152.186 171.697C156.009 168.818 156.79 165.127 157.511 161Z" fill="#797B7E"/>
<path d="M78.6421 135C79.1839 135.433 79.2383 135.742 79.4159 136.334C79.4699 136.51 79.5239 136.686 79.5796 136.867C79.961 138.31 79.9979 139.722 79.9996 141.191C79.9997 141.31 79.9998 141.43 80 141.553C79.993 145.176 79.358 148.715 77.339 152C76.81 151.62 76.4369 151.192 76.0458 150.72C73.9316 148.2 71.0882 146.113 68 144.367C70.6468 140.739 74.4136 137.484 78.6421 135Z" fill="#FAE0D2"/>
<path d="M56.8956 116.067C57.4884 116.185 57.4884 116.185 57.9763 116.065C58.6126 115.964 59.1123 116.013 59.7502 116.1C59.9582 116.125 60.1662 116.151 60.3806 116.178C60.9323 116.329 60.9323 116.329 61.3206 116.617C61.6461 117.24 61.5461 117.599 61.3347 118.253C61.0168 118.69 60.6332 119.057 60.2281 119.434C60.0073 119.648 59.7867 119.863 59.5663 120.077C59.4568 120.182 59.3473 120.288 59.2344 120.396C58.786 120.833 58.363 121.285 57.9393 121.741C57.4327 122.284 56.9205 122.821 56.3925 123.348C55.8804 123.764 55.8804 123.764 55.9021 124.026C56.0635 124.029 56.2249 124.031 56.3912 124.034C57.1211 124.047 57.8509 124.064 58.5807 124.081C58.9618 124.087 58.9618 124.087 59.3505 124.093C59.5937 124.099 59.8369 124.105 60.0874 124.112C60.3118 124.116 60.5363 124.121 60.7675 124.125C61.3347 124.201 61.3347 124.201 61.7098 124.431C62.0957 124.929 62.0097 125.371 61.9384 125.95C61.5699 126.408 61.3529 126.47 60.7311 126.65C60.1812 126.69 59.6344 126.723 59.0837 126.749C58.9329 126.756 58.7821 126.764 58.6267 126.771C58.2551 126.79 57.8834 126.808 57.5118 126.825C57.5118 126.883 57.5118 126.941 57.5118 127C57.1798 127 56.8478 127 56.5057 127C56.5057 126.885 56.5057 126.769 56.5057 126.65C56.182 126.699 56.182 126.699 55.8518 126.749C54.2916 126.915 52.6233 126.886 51.2743 126.125C51.0731 125.95 51.0731 125.95 51 125.487C51.0949 124.726 51.492 124.308 52.0414 123.742C52.1407 123.636 52.24 123.53 52.3422 123.421C53.1743 122.542 54.0536 121.703 54.9558 120.879C55.6616 120.218 56.2803 119.495 56.9081 118.778C56.764 118.774 56.6198 118.769 56.4712 118.765C55.8204 118.745 55.1696 118.723 54.5188 118.702C54.1784 118.691 54.1784 118.691 53.8311 118.681C53.6145 118.673 53.3979 118.666 53.1748 118.659C52.9746 118.652 52.7744 118.646 52.5681 118.639C52.0791 118.603 52.0791 118.603 51.6767 118.428C51.6767 118.313 51.6767 118.197 51.6767 118.078C51.4775 118.078 51.2783 118.078 51.0731 118.078C51.0731 117.79 51.0731 117.501 51.0731 117.204C51.2059 117.204 51.3387 117.204 51.4755 117.204C51.5004 117.092 51.5253 116.98 51.551 116.865C51.5925 116.746 51.634 116.627 51.6767 116.504C52.3274 116.221 53.0478 116.27 53.7643 116.242C54.0719 116.23 54.3795 116.217 54.687 116.203C54.8918 116.195 54.8918 116.195 55.1007 116.187C55.5066 116.163 55.5066 116.163 55.916 116.058C56.3045 115.979 56.3045 115.979 56.8956 116.067Z" fill="#060C0F"/>
<path d="M25.4687 136C29.2414 137.136 31.7777 140.358 34 143C33.7059 143.578 33.3606 143.909 32.7905 144.312C32.6414 144.419 32.4923 144.526 32.3386 144.636C32.0265 144.851 31.7078 145.059 31.386 145.264C30.0457 146.218 29.0573 147.424 28.0622 148.629C27.6507 149.125 27.2535 149.594 26.7171 150C25.6713 147.562 25.022 145.103 25.0175 142.508C25.0168 142.366 25.0162 142.223 25.0154 142.077C25.0144 141.778 25.0139 141.479 25.0139 141.18C25.0135 140.726 25.0097 140.272 25.0058 139.819C25.0051 139.526 25.0047 139.234 25.0045 138.942C25.0023 138.741 25.0023 138.741 25 138.537C25.0045 137.638 25.1748 136.865 25.4687 136Z" fill="#F9E1D3"/>
<path d="M133.573 145.924C133.784 146.097 133.784 146.097 134 146.275C133.855 146.273 133.71 146.271 133.561 146.269C126.1 146.187 119.199 147.196 113.624 151.535C110.16 154.528 108.673 158.389 108.746 162.449C108.856 165.23 109.889 168.007 111.76 170.33C111.995 170.649 111.995 170.649 111.995 171C109.991 170.297 108.921 168.178 108.15 166.616C107.806 165.811 107.543 164.989 107.295 164.161C107.258 164.059 107.221 163.958 107.182 163.853C106.958 162.973 107.025 162.05 107.019 161.154C107.016 160.904 107.012 160.655 107.006 160.406C106.946 158.056 107.361 155.889 108.724 153.782C108.797 153.666 108.87 153.551 108.946 153.431C111.372 149.706 115.313 147.257 120.114 145.924C120.357 145.851 120.6 145.779 120.85 145.704C124.731 144.716 129.75 144.749 133.573 145.924Z" fill="#797B7D"/>
<path d="M42.3617 123.032C42.5143 123.03 42.667 123.029 42.8242 123.028C43.1468 123.026 43.4694 123.025 43.792 123.026C44.2852 123.026 44.7777 123.019 45.2707 123.01C45.5844 123.01 45.898 123.009 46.2117 123.009C46.3588 123.006 46.5059 123.003 46.6575 123C47.0761 123.005 47.0761 123.005 47.8 123.117C48.2743 123.567 48.2743 123.567 48.6 124.026C48.732 124.086 48.864 124.146 49 124.208C48.3971 125.305 47.3774 126.244 46.475 127.141C45.7825 127.83 45.1733 128.527 44.6 129.301C45.3711 129.314 46.0585 129.319 46.8 129.119C46.932 129.119 47.064 129.119 47.2 129.119C47.2 129.239 47.2 129.359 47.2 129.483C47.4228 129.454 47.4228 129.454 47.65 129.426C48.2 129.483 48.2 129.483 48.6625 129.937C48.7739 130.087 48.8853 130.237 49 130.392C48.8207 130.94 48.6642 131.25 48.1875 131.631C47.5015 131.883 46.9997 131.879 46.2695 131.853C45.8067 131.847 45.3822 131.887 44.925 131.949C44.2 132.029 44.2 132.029 43.6 131.847C43.2833 131.843 42.9665 131.848 42.65 131.858C41.7483 131.869 41.0488 131.752 40.2 131.483C40.0391 130.918 40.0391 130.918 40 130.21C40.3118 129.763 40.5798 129.448 40.975 129.073C41.1781 128.869 41.3809 128.665 41.5836 128.46C41.6866 128.359 41.7895 128.257 41.8956 128.152C42.3632 127.682 42.7989 127.191 43.2375 126.698C43.3847 126.533 43.5319 126.369 43.6836 126.2C43.788 126.083 43.8924 125.966 44 125.845C43.5664 125.613 43.5664 125.613 42.875 125.675C41.9821 125.684 41.2501 125.553 40.4 125.3C40 124.754 40 124.754 40.0375 124.208C40.3906 123.023 41.1295 123.032 42.3617 123.032Z" fill="#050B0E"/>
<path d="M48.366 167.479C48.7313 167.673 48.7313 167.673 49.1194 168.169C49.2382 168.655 49.2725 168.86 49.1194 169.327C48.8733 169.634 48.6129 169.934 48.3433 170.227C47.6536 170.966 47.6536 170.966 47.4095 171.86C47.6102 172.637 47.8666 172.918 48.5373 173.463C49.4171 173.713 50.1628 173.757 51.0112 173.411C51.4482 173.153 51.4482 173.153 51.7388 172.843C51.8349 172.774 51.9309 172.706 52.0299 172.636C52.5513 172.687 52.5513 172.687 53 172.801C53 173.329 53 173.329 52.806 173.959C51.8081 174.713 50.7211 175.011 49.4074 175C48.3127 174.891 47.3383 174.488 46.597 173.794C46.1592 173.974 45.7484 174.163 45.3358 174.383C44.2889 174.896 43.0528 174.941 41.8903 174.693C41.1969 174.484 40.6582 174.282 40.194 173.794C40.0606 173.184 40.0606 173.184 40 172.636C40.2561 172.527 40.5122 172.417 40.7761 172.305C40.8702 172.388 40.9642 172.472 41.0611 172.558C41.9567 173.318 41.9567 173.318 43.1409 173.566C44.0595 173.438 44.5311 173.22 45.2024 172.687C45.5565 172.1 45.6362 171.611 45.4328 170.981C44.9721 170.384 44.4331 169.863 43.8806 169.327C43.5967 168.843 43.6002 168.54 43.6866 168.004C45.1564 166.75 46.5786 166.786 48.366 167.479Z" fill="#F8E2D5"/>
<path d="M77.2857 136C77.5214 136.057 77.7571 136.115 78 136.174C77.833 136.938 77.476 137.631 77.0923 138.348C76.0938 140.256 75.3159 142.188 74.6667 144.174C74.5998 144.365 74.5328 144.555 74.4639 144.752C74.0843 145.868 73.8724 146.851 73.9524 148C72.9384 147.375 71.9516 146.734 70.9762 146.076C70.0243 145.44 69.0725 144.87 68 144.348C68.2403 144.053 68.4805 143.759 68.7208 143.465C68.9696 143.141 68.9696 143.141 69.0484 142.799C69.2083 142.389 69.4226 142.166 69.7904 141.838C69.9146 141.726 70.0388 141.614 70.1668 141.499C70.3013 141.381 70.4358 141.263 70.5744 141.141C70.7129 141.019 70.8514 140.896 70.9941 140.769C72.9381 139.061 74.9476 137.427 77.2857 136Z" fill="#F4C3B1"/>
<path d="M51.2973 140.001C51.535 140 51.535 140 51.7774 140C54.5864 140.001 57.2568 140.276 60 140.836C59.6002 141.958 59.6002 141.958 59.3603 142.172C58.9643 142.16 58.5688 142.134 58.1742 142.101C57.9584 142.084 57.7426 142.066 57.5203 142.049C57.0125 142.001 56.5058 141.945 56.0002 141.882C52.7816 141.518 49.5134 141.766 46.3529 142.363C46.2121 142.39 46.0713 142.417 45.9262 142.444C40.1994 143.573 35.2256 146.427 31 150C31 149.177 31.5406 148.777 32.1195 148.186C32.2354 148.067 32.3513 147.948 32.4707 147.826C37.3635 142.885 43.8799 139.988 51.2973 140.001Z" fill="#7C7D80"/>
<path d="M26 136C29.289 136.999 31.979 140.327 33.7949 142.786C33.8626 142.963 33.9303 143.139 34 143.321C33.8638 143.427 33.7276 143.533 33.5873 143.642C32.4366 144.531 32.4366 144.531 31.3333 145.464C30.9231 145.821 30.9231 145.821 30.5128 146C30.1689 145.95 29.8264 145.891 29.4872 145.821C29.0478 144.611 28.6097 143.4 28.1726 142.189C28.0237 141.777 27.8744 141.365 27.7249 140.953C27.5102 140.361 27.2967 139.769 27.0833 139.177C27.016 138.993 26.9487 138.808 26.8794 138.618C26.8178 138.446 26.7562 138.274 26.6927 138.098C26.6107 137.871 26.6107 137.871 26.5271 137.64C26.4103 137.25 26.4103 137.25 26.4103 136.714C26.2749 136.714 26.1395 136.714 26 136.714C26 136.479 26 136.243 26 136Z" fill="#F6C4B2"/>
<path d="M29.4972 159C30.1041 159.077 30.1041 159.077 30.6531 159.204C30.6898 159.338 30.7264 159.471 30.7642 159.608C31.2178 161.11 31.6653 162.029 33.225 162.856C34.6582 163.317 36.2838 163.31 37.6753 162.754C39.291 161.916 39.8884 160.738 40.3628 159.204C40.9118 159.077 40.9118 159.077 41.5187 159C41.981 159.409 41.981 159.409 42 159.808C41.7944 161.356 41.2348 162.621 39.9004 163.699C37.8816 164.887 36.0807 165.155 33.6585 164.925C31.4559 164.315 30.2635 163.296 29.1794 161.554C28.9689 160.81 28.9779 160.176 29.0349 159.409C29.1874 159.274 29.34 159.139 29.4972 159Z" fill="#F6E2D7"/>
<path d="M55.4479 160C55.851 160.02 55.851 160.02 56.2387 160.169C56.404 160.477 56.404 160.477 56.5105 160.867C56.8884 161.96 57.5194 162.623 58.6605 163.205C60.033 163.538 61.1303 163.538 62.4414 163.025C63.5809 162.48 64.0301 161.83 64.4431 160.793C64.7397 160.169 64.7397 160.169 65.1289 160.024C65.2614 160.016 65.3939 160.008 65.5305 160C65.9259 160.338 65.9259 160.338 66 160.952C65.9601 162.062 65.3655 162.878 64.5049 163.681C63.0804 164.803 61.6778 165.044 59.7571 164.994C58.1949 164.815 56.8921 164.268 55.9174 163.194C55.6626 162.865 55.6626 162.865 55.4479 162.539C55.374 162.43 55.3001 162.32 55.224 162.208C55.0262 161.808 54.9997 161.512 55.0031 161.079C55.0021 160.948 55.0011 160.816 55 160.681C55.0525 160.338 55.0525 160.338 55.4479 160Z" fill="#F7E4D9"/>
<path d="M78.325 133.188C78.558 133.426 78.7841 133.668 79 133.915C78.8802 133.952 78.7604 133.988 78.6369 134.026C73.2546 135.675 68.9004 138.029 64.5297 141.035C64.3976 141.126 64.2655 141.217 64.1294 141.31C63.5262 141.729 62.9683 142.141 62.4247 142.612C61.9 143 61.9 143 61 143C61.4765 141.86 62.4666 141.132 63.475 140.275C63.6145 140.152 63.754 140.03 63.8978 139.904C66.2863 137.879 74.6093 131.865 78.325 133.188Z" fill="#808183"/>
<path d="M80 175.131C77.0586 176.473 73.9205 176.988 70.6144 177.45C65.0288 178.189 65.0288 178.189 60.5332 180.776C59.9489 181.469 59.5939 182.166 59.4636 183C59.3224 183 59.1812 183 59.0357 183C58.9166 181.388 59.0334 180.554 60.3594 179.312C63.5791 177.08 67.4579 176.824 71.5251 176.335C71.9791 176.279 72.4331 176.224 72.8871 176.168C73.1089 176.141 73.3307 176.114 73.5591 176.086C75.1915 175.877 76.7748 175.585 78.3615 175.214C79.5323 174.944 79.5323 174.944 80 175.131Z" fill="#898A8D"/>
<path d="M48.2455 167.49C48.6055 167.688 48.6055 167.688 48.988 168.196C49.0031 168.59 49.0048 168.986 48.988 169.38C48.8618 169.436 48.7356 169.492 48.6055 169.55C48.6095 169.361 48.6134 169.173 48.6175 168.978C48.656 168.393 48.656 168.393 48.4143 168.027C47.9726 168.027 47.5308 168.027 47.0757 168.027C47.0402 168.184 47.0402 168.184 47.004 168.344C46.8844 168.703 46.8844 168.703 46.502 169.042C45.9208 169.001 45.9208 169.001 45.235 168.894C45.0078 168.859 44.7805 168.825 44.5463 168.789C44.2838 168.747 44.2838 168.747 44.0159 168.703C44.3265 169.329 44.6661 169.813 45.1872 170.311C45.7113 170.827 45.8892 171.211 45.9283 171.919C46.1807 171.975 46.4331 172.03 46.6932 172.088C46.3777 172.088 46.0621 172.088 45.737 172.088C45.6076 172.664 45.6076 172.664 45.5458 173.273C45.672 173.384 45.7982 173.496 45.9283 173.611C45.9283 173.779 45.9283 173.946 45.9283 174.119C44.7557 174.921 43.744 175.085 42.2948 174.965C41.4698 174.782 40.7385 174.547 40.1912 173.95C40.0598 173.325 40.0598 173.325 40 172.765C40.2524 172.653 40.5049 172.542 40.7649 172.426C40.8576 172.512 40.9503 172.597 41.0458 172.686C41.9285 173.463 41.9285 173.463 43.0956 173.717C44.001 173.585 44.4658 173.363 45.1275 172.818C45.4765 172.216 45.555 171.716 45.3546 171.073C44.9005 170.462 44.3692 169.928 43.8247 169.38C43.5449 168.885 43.5483 168.575 43.6335 168.027C45.0821 166.745 46.4838 166.782 48.2455 167.49Z" fill="#F8EBE1"/>
<path d="M80.9082 156C81.4941 156.662 81.6976 157.422 81.949 158.258C82.0168 158.482 82.0168 158.482 82.086 158.711C83.2369 162.624 83.5307 166.603 81.6021 170.344C80.9617 171.337 80.1889 172.182 79.3469 173C79.2325 172.942 79.118 172.883 79 172.823C79.0651 172.718 79.1301 172.612 79.1972 172.504C82.0221 167.833 82.2514 163.142 81.0491 157.915C80.9076 157.237 80.8796 156.687 80.9082 156Z" fill="#7E8083"/>
<path d="M26.4615 134C31.5089 134.187 36.7694 137.177 40.0661 139.826C40.3843 140.099 40.6934 140.378 41 140.659C40.5431 140.771 40.0862 140.884 39.6154 141C39.4583 140.886 39.3013 140.772 39.1394 140.655C37.2897 139.344 35.2989 138.276 33.1538 137.244C32.9471 137.142 32.7404 137.04 32.5273 136.934C30.5235 135.987 28.2519 135.395 26 134.854C26.1523 134.572 26.3046 134.29 26.4615 134Z" fill="#878889"/>
<path d="M48.8295 167.195C48.9973 168.027 49.1096 168.683 48.8295 169.493C48.388 170.01 48.0187 170.436 47.4209 170.746C47.2885 171.379 47.2885 171.379 47.2197 172C46.8212 172 46.4228 172 46.0123 172C45.9417 171.759 45.8712 171.517 45.7985 171.269C45.47 170.337 44.9497 169.728 44.2869 169.025C44 168.657 44 168.657 44 168.03C44.9088 168.014 45.7287 168.009 46.616 168.239C46.6948 168.071 46.7737 167.903 46.8549 167.73C47.2197 167.195 47.2197 167.195 47.7227 167.012C48.2258 166.986 48.2258 166.986 48.8295 167.195Z" fill="#F4C4B2"/>
<path d="M146.917 136C147.856 136.292 148.526 136.807 149.251 137.335C149.384 137.431 149.517 137.527 149.654 137.626C149.92 137.82 150.186 138.014 150.451 138.208C150.748 138.424 151.05 138.635 151.353 138.846C153.567 140.435 155.643 142.558 157 144.647C156.887 144.822 156.887 144.822 156.771 145C155.8 144.173 154.83 143.346 153.878 142.507C153.749 142.394 153.621 142.281 153.488 142.165C153.228 141.933 152.969 141.7 152.713 141.466C151.577 140.437 150.318 139.593 148.971 138.732C148.849 138.654 148.728 138.576 148.602 138.496C148.25 138.271 147.897 138.047 147.543 137.823C147.001 137.467 146.495 137.101 146 136.706C146.303 136.764 146.605 136.822 146.917 136.882C146.917 136.591 146.917 136.3 146.917 136Z" fill="#828386"/>
<path d="M108.368 160C108.458 160 108.548 160 108.641 160C108.651 160.216 108.661 160.432 108.672 160.655C108.866 164.102 109.627 167.411 112.7 170.343C113 170.656 113 170.656 113 171C110.43 170.308 109.102 168.25 108.096 166.703C107.412 165.48 106.941 164.397 107.006 163.094C107.536 163.595 107.674 163.889 107.823 164.469C108.299 164.169 108.159 163.749 108.182 163.34C108.193 163.147 108.205 162.954 108.217 162.754C108.227 162.551 108.238 162.347 108.249 162.138C108.267 161.831 108.267 161.831 108.285 161.519C108.314 161.013 108.342 160.506 108.368 160Z" fill="#8E8F92"/>
<path d="M25.7729 175.001C25.8853 175.248 25.8853 175.248 26 175.501C25.7313 175.58 25.4625 175.659 25.1857 175.74C22.3853 176.589 20.1426 177.432 18.7331 179.5C18.5129 179.672 18.287 179.839 18.0518 180C17.9086 178.991 18.0286 178.309 18.8396 177.474C20.5447 175.97 23.1055 174.964 25.7729 175.001Z" fill="#85878A"/>
<path d="M72 167.142C71.9293 167.385 71.8586 167.628 71.7857 167.879C68.9243 168.492 65.9639 169.107 63 168.984C63 168.741 63 168.498 63 168.247C63.9673 167.944 64.9208 167.766 65.9355 167.635C66.0892 167.614 66.2428 167.594 66.401 167.573C66.7235 167.531 67.046 167.489 67.3686 167.447C67.8627 167.383 68.3562 167.317 68.8497 167.251C69.164 167.21 69.4783 167.169 69.7927 167.128C69.94 167.108 70.0873 167.088 70.2391 167.068C70.9237 166.982 71.3328 166.95 72 167.142Z" fill="#F1E0D5"/>
<path d="M63.4 171C65.8787 171.068 68.3348 171.192 70.8 171.362C70.9125 171.596 70.9125 171.596 71 171.845C70.6387 172.063 70.1457 171.986 69.6646 171.989C69.4284 171.989 69.4284 171.989 69.1875 171.989C69.0268 171.989 68.8662 171.989 68.7006 171.988C66.8148 171.977 64.7372 171.959 63 171.483C63.132 171.324 63.264 171.164 63.4 171Z" fill="#FAECE3"/>
<path d="M48.2431 167.409C48.6043 167.562 48.6043 167.562 48.988 167.954C49.0031 168.259 49.0049 168.564 48.988 168.869C48.798 168.934 48.798 168.934 48.6043 169C48.6082 168.854 48.6122 168.709 48.6163 168.559C48.6549 168.107 48.6549 168.107 48.4124 167.823C47.9693 167.823 47.5261 167.823 47.0695 167.823C47.0458 167.904 47.022 167.985 46.9976 168.069C46.8777 168.346 46.8777 168.346 46.494 168.608C45.911 168.576 45.911 168.576 45.223 168.493C44.995 168.467 44.767 168.44 44.5321 168.413C44.2687 168.38 44.2687 168.38 44 168.346C44.1003 167.985 44.2127 167.65 44.3837 167.3C45.7014 166.783 46.9531 167.009 48.2431 167.409Z" fill="#F6DDD0"/>
<path d="M25.2121 166C26.7472 166.489 28.2744 167.001 29.7992 167.526C30.0123 167.599 30.2253 167.672 30.4447 167.747C30.9632 167.925 31.4816 168.103 32 168.281C32 168.507 32 168.733 32 168.966C30.5657 169.088 29.3883 168.874 28.0227 168.438C27.7935 168.365 27.7935 168.365 27.5596 168.291C26.6579 167.99 25.8351 167.622 25 167.141C25.07 166.764 25.14 166.388 25.2121 166Z" fill="#F1E0D4"/>
<path d="M26.9929 170.001C27.3429 170.002 27.3429 170.002 27.6998 170.004C28.064 170.008 28.064 170.008 28.4355 170.012C28.6812 170.013 28.927 170.015 29.1802 170.016C29.7868 170.02 30.3934 170.025 31 170.032C30.7162 170.623 30.7162 170.623 30.2625 170.791C29.1389 170.966 28.0661 171.015 26.9234 170.996C26.7559 170.995 26.5883 170.993 26.4157 170.992C26.0083 170.988 25.6009 170.983 25.1935 170.977C25.1297 170.769 25.0658 170.561 25 170.347C25.6752 170.009 26.2085 169.995 26.9929 170.001Z" fill="#F7E7DE"/>
<path d="M26.4138 134C27.0283 134.047 27.6428 134.094 28.2759 134.143C28.2759 134.237 28.2759 134.331 28.2759 134.429C28.4451 134.463 28.4451 134.463 28.6177 134.497C29.8403 134.758 30.9032 135.118 32 135.571C31.7952 135.784 31.7952 135.784 31.5862 136C29.6624 135.679 27.8415 135.207 26 134.714C26.1366 134.479 26.2731 134.243 26.4138 134Z" fill="#7F8083"/>
<path d="M85.6592 135C85.7145 135.113 85.7698 135.226 85.8268 135.342C86.0649 135.739 86.0649 135.739 86.581 135.838C86.7193 135.853 86.8575 135.867 87 135.882C86.2654 136.237 85.5295 136.589 84.7933 136.941C84.5839 137.042 84.3745 137.143 84.1587 137.247C83.8584 137.391 83.8584 137.391 83.552 137.537C83.2747 137.67 83.2747 137.67 82.9917 137.806C82.5307 138 82.5307 138 82.0838 138C81.9721 137.442 81.9721 137.442 82.0838 136.765C82.6069 136.347 83.2229 136.086 83.8715 135.805C84.042 135.727 84.2126 135.648 84.3883 135.567C84.8092 135.374 85.2325 135.185 85.6592 135Z" fill="#7F8083"/>
<path d="M52 173C52.525 173.053 52.525 173.053 53 173.141C53 173.589 53 173.589 52.8 174.124C51.9091 174.679 50.9023 174.987 49.7125 174.994C49.5601 174.996 49.4078 174.998 49.2508 175C48.7533 174.964 48.4304 174.861 48 174.687C48.198 174.64 48.396 174.594 48.6 174.546C48.7253 174.501 48.8506 174.455 48.9797 174.409C49.5628 174.209 50.1715 174.101 50.7953 173.981C51.3077 173.807 51.3837 173.642 51.6 173.281C51.732 173.188 51.864 173.096 52 173Z" fill="#EBD5C9"/>
<path d="M149 137C152.32 138.067 155.46 142.132 157 144.636C156.89 144.816 156.89 144.816 156.778 145C156.11 144.395 155.443 143.789 154.778 143.182C154.625 143.044 154.472 142.905 154.314 142.763C154.178 142.639 154.043 142.514 153.903 142.386C153.721 142.221 153.721 142.221 153.536 142.053C153.213 141.718 152.993 141.387 152.778 141C152.924 141 153.071 141 153.222 141C153.369 141.12 153.516 141.24 153.667 141.364C152.478 140.116 151.233 138.973 149.847 137.872C149.561 137.645 149.28 137.414 149 137.182C149 137.122 149 137.062 149 137Z" fill="#939496"/>
<path d="M66.8182 168.234C66.8782 168.384 66.9382 168.534 67 168.688C65.6525 168.904 64.373 169.037 63 168.991C63 168.791 63 168.591 63 168.385C64.3727 167.967 65.4319 167.849 66.8182 168.234Z" fill="#ECDCD1"/>
<path d="M63.3636 171C64.4436 171.048 65.5236 171.095 66.6364 171.145C66.7564 171.335 66.8764 171.526 67 171.723C66.2864 171.994 65.7841 172.036 65 171.976C64.8163 171.963 64.6325 171.951 64.4432 171.937C63.9166 171.868 63.4855 171.751 63 171.578C63.12 171.387 63.24 171.197 63.3636 171Z" fill="#EDDBCF"/>
<path d="M91.901 171C92.1199 171.661 91.9379 172.076 91.7208 172.707C91.6817 172.822 91.6426 172.936 91.6024 173.054C90.9721 174.837 90.0013 176.91 88.2928 177.877C88.1962 177.917 88.0996 177.958 88 178C88.1399 177.849 88.2799 177.697 88.424 177.541C90.0271 175.65 91.0845 173.329 91.901 171Z" fill="#949698"/>
<path d="M79.6129 175C79.7406 175.06 79.8684 175.12 80 175.181C78.1846 176.115 76.1248 177.09 74 176.993C74.2555 176.874 74.511 176.754 74.7742 176.631C74.6465 176.511 74.5187 176.392 74.3871 176.268C74.5248 176.237 74.6624 176.205 74.8043 176.172C75.4274 176.027 76.0504 175.881 76.6734 175.736C76.8901 175.686 77.1068 175.636 77.33 175.584C77.5377 175.535 77.7454 175.487 77.9594 175.437C78.151 175.392 78.3426 175.348 78.5399 175.302C78.9012 175.213 79.2586 175.111 79.6129 175Z" fill="#8D8E92"/>
<path d="M40.1905 173C40.6703 173.201 41.0281 173.416 41.4405 173.729C41.8896 174.106 41.8896 174.106 42.4762 174.256C42.4762 174.433 42.4762 174.611 42.4762 174.794C42.979 174.794 43.4819 174.794 44 174.794C44 174.853 44 174.912 44 174.973C42.645 175.03 41.5866 175.052 40.381 174.435C40.2552 174.376 40.1295 174.317 40 174.256C40.0629 173.841 40.1257 173.427 40.1905 173Z" fill="#F8DDCD"/>
<path d="M65.5238 138C65.681 138.072 65.8381 138.143 66 138.217C65.0571 139.078 64.1143 139.939 63.1429 140.826C63.3786 141.149 63.3786 141.149 63.619 141.478C63.3642 141.734 63.1055 141.988 62.8452 142.239C62.7016 142.38 62.558 142.522 62.41 142.667C61.9524 143 61.9524 143 61 143C61.3273 142.114 61.7645 141.55 62.4583 140.867C62.6477 140.68 62.8371 140.493 63.0322 140.3C63.8482 139.52 64.6778 138.753 65.5238 138Z" fill="#919295"/>
<path d="M81.0094 156C81.6671 156.877 82.0609 158.046 81.9923 159.185C81.9563 159.358 81.9202 159.531 81.8831 159.71C81.8686 160.141 81.8762 160.568 81.8831 161C81.835 161 81.787 161 81.7375 161C81.6144 160.379 81.4937 159.757 81.3734 159.135C81.3387 158.96 81.304 158.785 81.2682 158.604C81.0982 157.719 80.9625 156.905 81.0094 156Z" fill="#8A8B8D"/>
<path d="M70 177.011C70 177.048 70 177.085 70 177.123C68.5721 177.289 68.5721 177.289 67.1154 177.459C67.75 177.459 68.3846 177.459 69.0385 177.459C68.3889 177.712 67.888 177.778 67.1274 177.873C66.8917 177.904 66.6559 177.934 66.413 177.966C65.8414 178.014 65.5309 178.024 65 177.908C65.3808 177.871 65.7615 177.834 66.1538 177.796C66.0269 177.648 65.9 177.5 65.7692 177.347C67.2064 177.105 68.502 176.958 70 177.011Z" fill="#8D8E91"/>
<path d="M65.7778 177.169C65.8511 177.37 65.9244 177.572 66 177.779C65.3363 178.032 64.6959 178.23 64 178.39C63.6472 178.493 63.2953 178.599 62.9444 178.708C62.7668 178.762 62.5892 178.817 62.4063 178.874C62.2722 178.915 62.1381 178.957 62 179C62 178.799 62 178.597 62 178.39C62.3834 178.191 62.7668 177.992 63.1502 177.794C63.5155 177.597 63.8698 177.384 64.2222 177.169C64.9112 176.959 65.1236 176.929 65.7778 177.169Z" fill="#7A7B7E"/>
<path d="M108.432 160C108.526 160 108.619 160 108.716 160C108.81 161.794 108.903 163.589 109 165.438C108.719 165.499 108.438 165.561 108.148 165.625C107.96 165.749 107.773 165.872 107.58 166C107.128 165.086 106.951 164.349 107.011 163.375C107.564 163.922 107.708 164.242 107.864 164.875C108.359 164.548 108.214 164.089 108.238 163.644C108.25 163.433 108.261 163.222 108.274 163.005C108.285 162.783 108.296 162.561 108.308 162.332C108.326 161.998 108.326 161.998 108.345 161.657C108.375 161.105 108.404 160.552 108.432 160Z" fill="#8D8E91"/>
<path d="M35.5 146C35.665 146.057 35.83 146.115 36 146.174C35.34 146.633 34.68 147.092 34 147.565C34.33 147.508 34.66 147.45 35 147.391C34.1236 148.01 33.2236 148.602 32.2969 149.185C32.0529 149.338 31.809 149.492 31.5576 149.65C31.2816 149.823 31.2816 149.823 31 150C31 149.229 31.7051 148.844 32.4062 148.293C32.5368 148.188 32.6673 148.083 32.8018 147.975C33.6632 147.288 34.5641 146.638 35.5 146Z" fill="#909092"/>
<path d="M29.5 134C31.2597 134.808 31.2597 134.808 32 135.4C31.835 135.697 31.835 135.697 31.6667 136C30.7192 135.671 29.8722 135.142 29 134.6C29.165 134.402 29.33 134.204 29.5 134Z" fill="#747577"/>
<path d="M52 173C52.525 173.063 52.525 173.063 53 173.167C52.975 173.708 52.975 173.708 52.8 174.333C52.225 174.75 52.225 174.75 51.6 175C51.402 174.945 51.204 174.89 51 174.833C51.264 174.668 51.528 174.503 51.8 174.333C51.7381 174.096 51.7381 174.096 51.675 173.854C51.6503 173.682 51.6255 173.51 51.6 173.333C51.732 173.223 51.864 173.113 52 173Z" fill="#F5E7DF"/>
<path d="M151 139C152.176 139.782 153.069 140.716 154 141.7C153.942 141.799 153.884 141.898 153.824 142C153.581 141.807 153.346 141.606 153.118 141.4C153.118 141.301 153.118 141.202 153.118 141.1C153.008 141.081 152.899 141.063 152.787 141.044C152.412 140.95 152.412 140.95 152.059 140.65C152.059 140.502 152.059 140.353 152.059 140.2C151.95 140.157 151.84 140.113 151.728 140.069C151.353 139.9 151.353 139.9 151 139.6C151 139.402 151 139.204 151 139Z" fill="#7B7D7F"/>
<path d="M151.487 174C151.656 174.066 151.826 174.132 152 174.2C150.435 175.057 148.781 175.64 147 176.163C146.699 176.253 146.699 176.253 146.392 176.345C144.934 176.76 143.548 176.931 142 177C142.169 176.934 142.338 176.868 142.513 176.8C142.513 176.668 142.513 176.536 142.513 176.4C142.719 176.399 142.719 176.399 142.929 176.398C145.801 176.288 148.664 175.345 151.077 174.157C151.212 174.105 151.348 174.053 151.487 174Z" fill="#929396"/>
<path d="M27.3077 170.01C27.3077 170.174 27.3077 170.337 27.3077 170.505C27.5362 170.56 27.7646 170.614 28 170.67C28 170.779 28 170.888 28 171C27.0862 171 26.1723 171 25.2308 171C25.1546 170.782 25.0785 170.564 25 170.34C25.7851 169.995 26.3968 169.981 27.3077 170.01Z" fill="#EFE1D8"/>
<path d="M157.476 161C157.873 161.531 158.011 161.905 157.999 162.514C157.998 162.66 157.996 162.805 157.995 162.955C157.991 163.105 157.987 163.255 157.983 163.409C157.979 163.638 157.979 163.638 157.976 163.872C157.97 164.248 157.962 164.624 157.953 165C157.638 164.94 157.324 164.88 157 164.818C157.12 163.541 157.248 162.269 157.476 161Z" fill="#959597"/>
<path d="M71 171.168C70.9305 171.443 70.8611 171.717 70.7895 172C69.5389 172 68.2884 172 67 172C67 171.931 67 171.863 67 171.792C67.3713 171.702 67.3713 171.702 67.75 171.61C68.3347 171.468 68.8984 171.309 69.4737 171.129C70.1151 170.971 70.3988 170.93 71 171.168Z" fill="#EDDDD3"/>
<path d="M69.5455 176C70.0255 176.109 70.5055 176.217 71 176.329C70.8182 176.988 70.8182 176.988 70.3068 177.337C70.1156 177.439 69.9243 177.541 69.7273 177.646C69.5617 177.736 69.5617 177.736 69.3928 177.829C68.9059 178.01 68.4512 178.007 67.9545 177.996C67.7755 177.993 67.5964 177.99 67.4119 177.987C67.276 177.983 67.1401 177.979 67 177.975C67.06 177.758 67.12 177.541 67.1818 177.317C67.5754 177.111 67.9743 176.937 68.375 176.782C68.7016 176.653 68.7016 176.653 69.0348 176.522C69.2876 176.427 69.2876 176.427 69.5455 176.329C69.5455 176.221 69.5455 176.112 69.5455 176Z" fill="#717375"/>
<path d="M81.8194 168C82.0971 168.573 82.0332 168.776 81.7728 169.371C81.6495 169.589 81.5262 169.807 81.3992 170.031C80.8819 170.899 80.8819 170.899 80.735 171.846C80.4504 172.155 80.4504 172.155 80.0844 172.459C79.9636 172.561 79.8428 172.663 79.7184 172.768C79.6245 172.844 79.5305 172.921 79.4338 173C79.2906 172.937 79.1475 172.873 79 172.808C79.0814 172.693 79.1627 172.579 79.2465 172.461C79.9742 171.416 80.5969 170.365 81.1518 169.239C81.3609 168.819 81.5834 168.409 81.8194 168Z" fill="#939497"/>
<path d="M109 168C110.126 168.464 110.728 168.919 111.409 169.5C111.523 169.594 111.636 169.689 111.753 169.786C112.23 170.187 112.657 170.576 113 171C111.665 170.778 111.032 170.479 110.182 170.006C109.959 169.884 109.736 169.761 109.506 169.635C109.255 169.494 109.255 169.494 109 169.35C109.12 169.251 109.24 169.152 109.364 169.05C109.604 169.149 109.844 169.248 110.091 169.35C109.731 168.905 109.371 168.459 109 168Z" fill="#909093"/>
<path d="M82.864 165C82.9048 165 82.9455 165 82.9875 165C83.0126 166.833 83.0126 166.833 82.864 167.471C82.7418 167.587 82.6196 167.704 82.4937 167.824C82.4123 167.765 82.3308 167.707 82.2469 167.647C82.1654 167.764 82.0839 167.88 82 168C82.0141 167.746 82.0299 167.493 82.0463 167.239C82.0549 167.098 82.0635 166.956 82.0723 166.811C82.1234 166.412 82.1234 166.412 82.3703 165.882C82.411 166.115 82.4518 166.348 82.4937 166.588C82.5752 166.588 82.6567 166.588 82.7406 166.588C82.7813 166.064 82.8221 165.54 82.864 165Z" fill="#88888C"/>
<path d="M156.61 165C156.813 165.195 156.813 165.195 157 165.5C156.959 165.969 156.959 165.969 156.87 166.375C156.698 166.292 156.527 166.21 156.35 166.125C156.221 166.558 156.221 166.558 156.09 167C155.931 166.54 156.008 166.325 156.131 165.859C156.165 165.725 156.199 165.591 156.235 165.452C156.35 165.125 156.35 165.125 156.61 165Z" fill="#838385"/>
<path d="M18.8836 178C18.9757 178.141 19.0678 178.283 19.1627 178.429C19.439 178.381 19.7153 178.334 20 178.286C19.5628 178.901 18.972 179.437 18.3254 180C18.2333 180 18.1412 180 18.0463 180C17.9559 179.214 17.8975 178.652 18.8836 178Z" fill="#919395"/>
<path d="M21.6154 176C21.8438 176.033 22.0723 176.066 22.3077 176.1C22.0031 176.232 21.6985 176.364 21.3846 176.5C21.5226 176.465 21.6607 176.43 21.8029 176.394C22.3077 176.3 22.3077 176.3 23 176.4C22.6264 176.503 22.2511 176.605 21.875 176.706C21.6662 176.763 21.4573 176.82 21.2422 176.879C21.0607 176.919 20.8793 176.959 20.6923 177C20.54 176.967 20.3877 176.934 20.2308 176.9C20.3069 176.834 20.3831 176.768 20.4615 176.7C20.3092 176.634 20.1569 176.568 20 176.5C20.2526 176.413 20.5079 176.328 20.7644 176.244C20.9063 176.196 21.0482 176.149 21.1944 176.1C21.3333 176.067 21.4723 176.034 21.6154 176Z" fill="#8D8E91"/>
<path d="M23.6727 135C23.7807 135 23.8887 135 24 135C24 136.311 24 137.622 24 138.973C23.784 138.973 23.5679 138.973 23.3453 138.973C23.3453 139.972 23.3453 140.971 23.3453 142C23.2373 142 23.1293 142 23.018 142C22.9363 139.634 23.1295 137.346 23.6727 135Z" fill="#373B3C"/>
<path d="M36.4286 145C36.6171 145.055 36.8057 145.11 37 145.167C36.5719 145.802 35.9243 146.096 35 146.5C34.8114 146.61 34.6229 146.72 34.4286 146.833C33.6786 146.938 33.6786 146.938 33 147C34.0509 146.246 35.1174 145.601 36.4286 145Z" fill="#737476"/>
<path d="M26.4 134.013C26.975 133.996 26.975 133.996 27.6 134.013C27.732 134.106 27.864 134.199 28 134.295C27.802 134.342 27.604 134.388 27.4 134.436C27.334 134.529 27.268 134.622 27.2 134.718C27.464 134.811 27.728 134.904 28 135C27.3061 134.935 26.6652 134.874 26 134.718C26.132 134.485 26.264 134.253 26.4 134.013Z" fill="#8E8F91"/>
<path d="M131.115 145C132.129 145.111 133.042 145.271 134 145.75C134 145.833 134 145.915 134 146C131.525 145.876 131.525 145.876 129 145.75C129 145.667 129 145.585 129 145.5C130.047 145.376 130.047 145.376 131.115 145.25C131.115 145.167 131.115 145.085 131.115 145Z" fill="#A2A4A7"/>
<path d="M116.431 183.228C117.185 183.412 117.778 183.454 118.556 183.421C118.556 183.548 118.556 183.676 118.556 183.807C118.702 183.871 118.849 183.934 119 184C116.03 183.713 116.03 183.713 113 183.421C113 183.357 113 183.293 113 183.228C115.229 182.924 115.229 182.924 116.431 183.228Z" fill="#1D2326"/>
<path d="M25.3333 139C25.4433 139 25.5533 139 25.6667 139C25.7767 140.98 25.8867 142.96 26 145C25.67 145 25.34 145 25 145C25.11 143.02 25.22 141.04 25.3333 139Z" fill="#322E2D"/>
<path d="M108.484 165C108.644 165 108.804 165 108.968 165C108.977 165.271 108.983 165.542 108.989 165.813C108.992 165.963 108.996 166.114 109 166.27C108.968 166.667 108.968 166.667 108.646 167C108.576 166.716 108.576 166.716 108.504 166.427C108.444 166.231 108.385 166.035 108.323 165.833C108.216 165.778 108.11 165.723 108 165.667C108.212 165.333 108.212 165.333 108.484 165Z" fill="#717275"/>
<path d="M63 141C62.9087 141.675 62.8253 142.146 62.4219 142.703C62 143 62 143 61 143C61.336 141.964 61.7805 141 63 141Z" fill="#8A8C8E"/>
<path d="M27.6 167C28.194 167.071 28.194 167.071 28.8 167.143C28.536 167.19 28.272 167.237 28 167.286C28 167.38 28 167.474 28 167.571C28.66 167.666 29.32 167.76 30 167.857C30 167.904 30 167.951 30 168C27.8884 167.889 27.8884 167.889 27 167.571C27.099 167.504 27.198 167.436 27.3 167.366C27.6231 167.177 27.6231 167.177 27.6 167Z" fill="#F4EDE7"/>
<path d="M96 175.117C95.7286 175.222 95.4565 175.326 95.1842 175.43C95.0328 175.489 94.8813 175.547 94.7253 175.607C94.3158 175.744 94.3158 175.744 93.8947 175.744C93.8253 175.9 93.7558 176.055 93.6842 176.215C93.1842 176.46 93.1842 176.46 92.6316 176.686C92.4232 176.79 92.2147 176.893 92 177C92.5278 176.07 93.671 175.62 94.8026 175.126C95.3684 174.96 95.3684 174.96 96 175.117Z" fill="#8F9194"/>
<path d="M18.5714 175C18.7129 175.058 18.8543 175.116 19 175.176C18.8707 175.292 18.7415 175.407 18.6083 175.525C17.7289 176.317 16.8899 177.081 16.2143 178C16.1436 177.884 16.0729 177.767 16 177.647C16.7578 176.651 17.5243 175.801 18.5714 175Z" fill="#1A1E20"/>
<path d="M109.25 167C109.734 167.113 109.734 167.113 110.25 167.4C110.406 168.05 110.406 168.05 110.5 168.8C110.656 169.203 110.819 169.604 111 170C110.046 169.346 109.398 168.552 109 167.6C109.083 167.402 109.165 167.204 109.25 167Z" fill="#727375"/>
<path d="M46.0952 129C46.4127 129 46.7302 129 47.0476 129C47.0476 129.22 47.0476 129.44 47.0476 129.667C47.3619 129.667 47.6762 129.667 48 129.667C48 129.777 48 129.887 48 130C46.68 130 45.36 130 44 130C44.381 129.333 44.381 129.333 44.7448 129.28C44.8801 129.291 45.0154 129.301 45.1548 129.313C45.4023 129.319 45.6498 129.326 45.9048 129.333C45.9676 129.223 46.0305 129.113 46.0952 129Z" fill="#1D2326"/>
<path d="M81.619 167C82.0222 167.5 82.0222 167.5 81.9844 168C81.8201 168.501 81.7005 168.686 81.2158 169C80.9428 168.549 81.0011 168.165 81.0143 167.667C81.1473 167.612 81.2803 167.557 81.4174 167.5C81.4839 167.335 81.5505 167.17 81.619 167Z" fill="#717275"/>
<path d="M155 143C155.59 143.067 155.833 143.128 156.227 143.505C156.321 143.635 156.416 143.764 156.514 143.898C156.612 144.027 156.709 144.156 156.81 144.289C156.873 144.404 156.935 144.518 157 144.636C156.927 144.756 156.853 144.876 156.778 145C156.48 144.736 156.184 144.47 155.889 144.205C155.724 144.057 155.559 143.909 155.389 143.757C155 143.364 155 143.364 155 143Z" fill="#9C9D9E"/>
<path d="M153 141C153.152 141 153.305 141 153.462 141C153.654 141.18 153.654 141.18 153.851 141.365C154.494 141.93 155.161 142.259 156 142.667C155.543 142.832 155.543 142.832 155.077 143C154.816 142.792 154.557 142.584 154.298 142.375C154.154 142.259 154.009 142.143 153.86 142.023C153.49 141.692 153.239 141.387 153 141Z" fill="#898B8D"/>
<path d="M32.2727 148C32.5127 148.06 32.7527 148.12 33 148.182C32.34 148.782 31.68 149.382 31 150C31 149.313 31.1813 149.189 31.6364 148.693C31.7545 148.563 31.8726 148.433 31.9943 148.299C32.0862 148.2 32.1781 148.102 32.2727 148Z" fill="#9C9D9E"/>
<path d="M90 181.008C89.934 181.205 89.868 181.401 89.8 181.603C89.4411 181.646 89.4411 181.646 89.075 181.69C88.3799 181.776 87.6901 181.88 87 182C87.132 181.935 87.264 181.869 87.4 181.802C87.4 181.671 87.4 181.54 87.4 181.405C88.3007 181.056 89.0353 180.97 90 181.008Z" fill="#1C2224"/>
<path d="M156.667 166C156.777 166.22 156.887 166.44 157 166.667C156.834 167.333 156.725 167.562 156.333 168C156.223 168 156.113 168 156 168C156.103 166.769 156.103 166.769 156.427 166.25C156.506 166.168 156.585 166.085 156.667 166Z" fill="#6F7073"/>
<path d="M26.5 167.027C27.2812 166.991 27.2812 166.991 28 167.027C27.9175 167.284 27.835 167.541 27.75 167.805C27.1562 167.927 27.1562 167.927 26.5 168C26.335 167.872 26.17 167.743 26 167.611C26.165 167.418 26.33 167.226 26.5 167.027Z" fill="#EFDDD2"/>
<path d="M64.7143 136C64.8086 136.055 64.9029 136.11 65 136.167C64.802 136.411 64.6022 136.654 64.4018 136.896C64.2907 137.031 64.1797 137.167 64.0653 137.306C63.7161 137.665 63.4391 137.834 63 138C63.4888 137.216 64.0827 136.621 64.7143 136Z" fill="#212627"/>
<path d="M63 181C63 181.61 62.8271 181.98 62.5867 182.528C62.4012 183.008 62.3309 183.489 62.2702 184C62.21 184 62.1498 184 62.0878 184C61.9479 182.383 61.9479 182.383 62.2909 181.75C62.5439 181.445 62.5439 181.445 63 181Z" fill="#B1B3B6"/>
<path d="M27.875 148C27.9163 148.132 27.9575 148.264 28 148.4C27.8755 148.789 27.8755 148.789 27.6953 149.225C27.6362 149.37 27.577 149.515 27.5161 149.664C27.4695 149.775 27.423 149.886 27.375 150C27.0297 149.448 27.0527 148.959 27 148.2C27.25 148.6 27.25 148.6 27.25 149.2C27.3325 149.2 27.415 149.2 27.5 149.2C27.5387 149.039 27.5773 148.878 27.6172 148.713C27.75 148.2 27.75 148.2 27.875 148Z" fill="#F0ECE7"/>
<path d="M99 129.143C98.7347 129.257 98.469 129.371 98.2031 129.484C98.0552 129.547 97.9073 129.61 97.7549 129.675C96.7257 130.074 96.7257 130.074 96 129.847C96.3582 129.694 96.7179 129.544 97.0781 129.396C97.2783 129.312 97.4784 129.228 97.6846 129.142C98.2469 128.968 98.4627 128.938 99 129.143Z" fill="#8E8F92"/>
<path d="M79.8374 147C80.0365 147.649 80.0513 148.082 79.8898 148.741C79.8563 148.887 79.8228 149.034 79.7884 149.185C79.6281 149.571 79.6281 149.571 79 150C79.0994 149.54 79.1999 149.08 79.301 148.621C79.3568 148.364 79.4127 148.108 79.4702 147.845C79.6281 147.214 79.6281 147.214 79.8374 147Z" fill="#100E0E"/>
<path d="M23 143C23.33 143.066 23.66 143.132 24 143.2C23.89 144.124 23.78 145.048 23.6667 146C23.5567 146 23.4467 146 23.3333 146C23.2233 145.01 23.1133 144.02 23 143Z" fill="#282D2F"/>
<path d="M64.8889 177C65.3194 177.063 65.3194 177.063 65.7778 177.2C65.8511 177.398 65.9244 177.596 66 177.8C65.25 177.925 65.25 177.925 64.4444 178C64.2978 177.868 64.1511 177.736 64 177.6C64.2933 177.468 64.5867 177.336 64.8889 177.2C64.8889 177.134 64.8889 177.068 64.8889 177Z" fill="#727578"/>
<path d="M89.6364 176C89.7564 176.165 89.8764 176.33 90 176.5C89.46 176.995 88.92 177.49 88.3636 178C88.2436 177.945 88.1236 177.89 88 177.833C88.1029 177.729 88.2058 177.625 88.3118 177.517C88.5118 177.313 88.5118 177.313 88.7159 177.104C88.8488 176.969 88.9817 176.833 89.1186 176.694C89.46 176.357 89.46 176.357 89.6364 176Z" fill="#8D9094"/>
<path d="M45.7857 182.314C45.8564 182.54 45.9271 182.767 46 183C44.515 182.83 44.515 182.83 43 182.657C43 182.544 43 182.43 43 182.314C43.3033 182.246 43.607 182.183 43.9107 182.121C44.0798 182.085 44.2488 182.049 44.423 182.012C44.9374 181.97 45.3034 182.029 45.7857 182.314Z" fill="#1E2326"/>
<path d="M20.3333 176C20.5533 176.165 20.7733 176.33 21 176.5C20.7083 177.719 20.7083 177.719 20.3333 178C20.3333 177.752 20.3333 177.505 20.3333 177.25C20.2233 177.167 20.1133 177.085 20 177C20.11 176.67 20.22 176.34 20.3333 176Z" fill="#787A7C"/>
<path d="M81.0088 156C81.711 156.641 81.8812 157.156 82 158C81.7547 158 81.5094 158 81.2566 158C80.9697 157.305 80.9918 156.728 81.0088 156Z" fill="#9C9EA1"/>
<path d="M60.1467 179C60.4321 179.048 60.7168 179.103 61 179.167C60.8197 179.589 60.649 179.642 60.2889 179.833C60.1481 179.916 60.1481 179.916 60.0044 180C59.9984 179.722 59.9987 179.444 60.0044 179.167C60.0514 179.112 60.0983 179.057 60.1467 179Z" fill="#7A7C7E"/>
<path d="M151 139C151.33 139.206 151.66 139.412 152 139.625C151.945 139.749 151.89 139.873 151.833 140C151.417 139.781 151.417 139.781 151 139.5C151 139.335 151 139.17 151 139Z" fill="#767779"/>
<path d="M65.2558 160C65.5014 160 65.747 160 66 160C66 160.33 66 160.66 66 161C65.8363 160.876 65.6726 160.752 65.5039 160.625C65.2583 160.687 65.2583 160.687 65.0078 160.75C64.9972 160.542 64.9977 160.333 65.0078 160.125C65.0896 160.084 65.1715 160.043 65.2558 160Z" fill="#F7D9C7"/>
<path d="M81.1729 157C81.3441 157.06 81.5153 157.12 81.6916 157.182C81.9226 157.728 82.0622 158.108 81.9726 158.705C81.9369 158.802 81.9013 158.9 81.8645 159C81.7504 158.64 81.6363 158.28 81.5187 157.909C81.4046 157.909 81.2905 157.909 81.1729 157.909C81.0756 157.557 81.0756 157.557 81 157.182C81.0571 157.122 81.1141 157.062 81.1729 157Z" fill="#949496"/>
<path d="M166.05 153.93C166.502 154.406 166.635 154.667 166.792 155.212C166.832 155.346 166.872 155.481 166.913 155.62C166.942 155.722 166.97 155.825 167 155.93C166.525 155.68 166.525 155.68 166.05 155.264C165.965 154.804 166.005 154.397 166.05 153.93Z" fill="#181E1F"/>
<path d="M70.7273 135C70.8173 135.165 70.9073 135.33 71 135.5C70.0431 136.274 69.2295 136.685 68 137C68.8482 136.178 69.6408 135.541 70.7273 135Z" fill="#919194"/>
<path d="M124 125C124.99 125.11 125.98 125.22 127 125.333C127 125.443 127 125.553 127 125.667C126.238 125.777 125.477 125.887 124.692 126C124.692 125.78 124.692 125.56 124.692 125.333C124.464 125.223 124.235 125.113 124 125Z" fill="#222728"/>
<path d="M82 137C82.2475 137.071 82.2475 137.071 82.5 137.143C82.4175 137.284 82.335 137.426 82.25 137.571C82.8275 137.477 83.405 137.383 84 137.286C83.4118 137.675 82.8438 137.831 82 138C82 137.67 82 137.34 82 137Z" fill="#959699"/>
<path d="M77.2601 136C77.5043 136.066 77.7484 136.132 78 136.2C77.8691 136.964 77.6308 137.412 77.0135 138C76.9827 136.675 76.9827 136.675 77.2601 136Z" fill="#EFBCAA"/>
<path d="M80 175.163C79.7701 175.318 79.5388 175.47 79.3068 175.62C79.1781 175.705 79.0495 175.789 78.9169 175.877C78.5455 176.049 78.5455 176.049 78 175.827C78.5165 175.199 79.307 174.742 80 175.163Z" fill="#9E9FA1"/>
<path d="M30.2857 168C31.1343 168.124 31.1343 168.124 32 168.25C32 168.498 32 168.745 32 169C31.34 169 30.68 169 30 169C30.2829 168.835 30.5657 168.67 30.8571 168.5C30.6686 168.335 30.48 168.17 30.2857 168Z" fill="#FAF6F1"/>
<path d="M24.1429 175C24.5671 175.099 24.5671 175.099 25 175.2C24.6894 175.7 24.4671 175.887 24 176C24.0471 175.67 24.0943 175.34 24.1429 175Z" fill="#757779"/>
<path d="M72 167.152C71.9175 167.432 71.835 167.712 71.75 168C71.5025 167.93 71.255 167.86 71 167.788C71.165 167.788 71.33 167.788 71.5 167.788C71.5 167.648 71.5 167.508 71.5 167.364C71.005 167.364 70.51 167.364 70 167.364C70 167.294 70 167.224 70 167.152C70.8217 166.982 71.1776 166.919 72 167.152Z" fill="#FAF4EF"/>
<path d="M122.25 128C122.827 128 123.405 128 124 128C123.752 128.473 123.752 128.473 123.5 128.955C122.719 129.015 122.719 129.015 122 128.955C122.083 128.64 122.165 128.325 122.25 128Z" fill="#6B6D70"/>
<path d="M77.25 130C77.4975 130 77.745 130 78 130C78 130.33 78 130.66 78 131C77.67 130.835 77.34 130.67 77 130.5C77.0825 130.335 77.165 130.17 77.25 130Z" fill="#323839"/>
<path d="M111 124C112 125 112 125 112 125L111 124Z" fill="#2E3235"/>
<path d="M41 127C41.495 127.248 41.495 127.248 42 127.5C41.505 127.748 41.505 127.748 41 128C41 127.67 41 127.34 41 127Z" fill="#23292D"/>
<path d="M52 183C53 184 53 184 53 184L52 183Z" fill="#21272B"/>
<path d="M95 127C96 128 96 128 96 128L95 127Z" fill="#2B3335"/>
</svg>
